# xmcd
#
# Track frame offsets:
#	150
#	13562
#	34817
#	49730
#	66250
#	83010
#	103470
#	122250
#	140165
#	153297
#	165270
#	183034
#	201950
#	220022
#
# Disc length: 3162 seconds
#
# Revision: 1
# Processed by: cddbd v1.4PL0 Copyright (c) Steve Scherf et al.
# Submitted via: EasyCDDAExtractor 5.0.7
#
DISCID=b60c580e
DTITLE=Say Zuzu - Take These Turns
DYEAR=1900
DGENRE=
TTITLE0=The Farm
TTITLE1=14 Other Ways
TTITLE2=Hard Line
TTITLE3=Take These Turns
TTITLE4=My My My
TTITLE5=This Town
TTITLE6=Don't Tie Me Down
TTITLE7=Like Mama Said
TTITLE8=Nickle Store Stomp
TTITLE9=The Twine Song
TTITLE10=Dead Dog
TTITLE11=Chamberlain's Guard
TTITLE12=Broken
TTITLE13=706 Union
EXTD=
EXTT0=
EXTT1=
EXTT2=
EXTT3=
EXTT4=
EXTT5=
EXTT6=
EXTT7=
EXTT8=
EXTT9=
EXTT10=
EXTT11=
EXTT12=
EXTT13=
PLAYORDER=
